<svg xmlns="http://www.w3.org/2000/svg" width="56.755" height="42.211" viewBox="0 0 56.755 42.211">
  <g id="Grupo_3606" data-name="Grupo 3606" transform="translate(-4404.445 2933.146)">
    <path id="Caminho_6309" data-name="Caminho 6309" d="M18.052,7.381A93.363,93.363,0,0,1,27.541.008a5.054,5.054,0,0,1,1.616.778c5.27,2.184,9.553,4.073,15.294,6.015a.461.461,0,0,1,.129.58,28.935,28.935,0,0,1-3.284,3.88c3.461.1,8.844.21,12.091.21.322,0,.129-.713.677-.907.435-.145.633.371.633.842.161.306.907.113.907.419,0,.633-.939.355-1,.7a46.12,46.12,0,0,0-.258,5.5c-.016.081.048,3.493.113,3.493a4.549,4.549,0,0,1,1.894.616c.483.371.661,1.052-.145,1.616a1.094,1.094,0,0,1,.451.874c.016.548-.371.58-.4.745-.064.355.274.435.274.842,0,.794-.907.761-.548,1.181a1.044,1.044,0,0,1-.274,1.342,2.632,2.632,0,0,1-1.567.516s.016.5,0,.665a81.553,81.553,0,0,0-.064,12.236,10.331,10.331,0,0,1-2.329-.048c-.161,0-3.8-.048-4.315-.048-8.082-.665-13.449.145-21.922-.939a25.132,25.132,0,0,0-2.957-.032c-5.4-.048-13.143-.016-15.246.113a29.113,29.113,0,0,0-2.893.338c-.633.322-1.825.355-1.99-.113-.149-2.172-.31-6.793-.471-9.17a4.541,4.541,0,0,0,.016-.923,1.265,1.265,0,0,1-1.326-.5c-.322-.467.145-.955.145-1.422,0-.306-.483-.306-.564-.907-.048-.355.338-.693.113-.971a1.046,1.046,0,0,1-.306-.971c.048-.29.548-.681.548-.681A1.189,1.189,0,0,1,.51,24.013c.5-.483.987-.419,1.164-.629.778-.923-.483-9.1-.322-11.35.016-.355-.467-.467-.778-.629-.161-.145.145-.58.306-.616a4.173,4.173,0,0,1,1.7.226,15.243,15.243,0,0,0,4.3-.064c2.522-.274,4.964.016,6.821-.161a3.141,3.141,0,0,0,.858-.274,42.849,42.849,0,0,0,3.5-3.135" transform="translate(4404.441 -2933.146)"/>
    <path id="Caminho_6310" data-name="Caminho 6310" d="M42.795,5.186c-3.7,3.251-6.95,5.951-10.395,9-.258.226.467.7.858.826,3.687,1.229,6.5,2.635,10.218,4.041,1.084.306,2.184.923,3.264,1.245a10.667,10.667,0,0,1,1.583.612c.874.258,1.471.826,1.986.419,4.025-3.268,7.067-6.37,10.637-9.617.612-.778,1.229-1.406,1.857-2.184V8.921c-.778-1.084-2.184-1.084-3.264-1.551a2.753,2.753,0,0,0-1.084-.306,14.292,14.292,0,0,0-3.268-1.406c-1.7-.778-3.413-1.084-4.964-2.023-.778-.306-1.39-.467-2.023-.778a2.235,2.235,0,0,0-1.841-.145,18.972,18.972,0,0,0-3.566,2.474" transform="translate(4385.13 -2934.685)" fill="#ffed00"/>
    <path id="Caminho_6311" data-name="Caminho 6311" d="M57.663,9.753c.629.032,1.471.193,2.071.258,1.245.161,2.635,1.245,3.88,2.184a6.333,6.333,0,0,1,1.358,6.241c-1.374,3.413-7.26,4.251-11.269,3.332a6.5,6.5,0,0,1-4.186-2.893,3.5,3.5,0,0,1-.355-2.49c.161-.467.193-.693.355-1.164A9.145,9.145,0,0,1,51.523,12.2,16.438,16.438,0,0,1,55.1,9.709c1.708-.778,1.66,0,2.566.044" transform="translate(4375.16 -2938.737)"/>
    <path id="Caminho_6312" data-name="Caminho 6312" d="M60.754,12.766c-1.728-.387-3.558-.778-4.851-.306A8.4,8.4,0,0,0,50.891,18.1c-.435,2.522,1.841,4.964,5.125,4.964,0,0,.761.193.971.21a7.739,7.739,0,0,0,3.151-.161,6.684,6.684,0,0,0,1.745-.355,5.29,5.29,0,0,0,3.429-3.1c1.088-3.413-1.144-6.112-4.557-6.89" transform="translate(4374.088 -2940.457)" fill="#fff"/>
    <path id="Caminho_6313" data-name="Caminho 6313" d="M72.82,18.981c.145.306-.193.649-.5.649a.562.562,0,0,1-.21-1.019c.318-.145.548.064.709.371" transform="translate(4361.539 -2944.23)"/>
    <path id="Caminho_6314" data-name="Caminho 6314" d="M65.6,18.615c.21.1.21.713.064.858a.6.6,0,0,1-.81-.306c-.157-.471.439-.7.745-.552" transform="translate(4365.736 -2944.235)"/>
    <path id="Caminho_6315" data-name="Caminho 6315" d="M58.559,26.1c-.113.633-.761,1.583.048,1.761a15.8,15.8,0,0,0,6.757.226c.955-.226,1.293-1,1.293-2.087h.322a1.936,1.936,0,0,1-1.535,2.538c-2.329.145-5.044.564-7.309-.516A1.389,1.389,0,0,1,57.83,26c.165,0,.761-.044.729.1" transform="translate(4370.091 -2948.669)"/>
    <path id="Caminho_6316" data-name="Caminho 6316" d="M48.781,29.2c-1.793-.081-3.638.161-5.351,0-3.574,3.268-6.37,6.289-9.782,8.989-.161.145-.451-.757-.761-.923-.629-.306-1.745-.564-2.522-.874-5.282-1.853-10.2-4.182-15.322-6.092-.21-.081-.612-.467-.467-.467A7.036,7.036,0,0,0,16.6,28.51s-1.084.081-1.245.081c-2.99.129-5.967.29-9.992.665a15.469,15.469,0,0,0,.467,3.719c.274,1.257-.1,5.218.032,6.446.016.129-.129.794.016.794.161,0,.971.016,1.181.548.258.612-.387,1.2-.387,1.2s1.213-.1,1.422.745A1.219,1.219,0,0,1,7.7,43.836a1.368,1.368,0,0,1,.29.971c-.064.6-.907,1.116-.907,1.116a.922.922,0,0,1,.564.939c0,.923-1.6,1.019-1.712,1.374,0,0-.032,2.006,0,2.973a60.19,60.19,0,0,0,.451,6.45c1.712-.145,4.46-.274,6.16-.274,4.448-.145,8.876-.113,13.3-.016,9.134.451,20.887.858,30.46.858,0-1.777.064-7.76.081-11.007a7.409,7.409,0,0,0-.032-1.052,1.737,1.737,0,0,1-1.068-.826.772.772,0,0,1,.274-1.132s-.826-.371-.6-1.084a1.4,1.4,0,0,1,.939-.778s-.693-.4-.661-.955c.032-.874,1.132-1.035,1.068-1.068-.745-.371-1.019-1.261,0-1.583.129-.048.355-.081.355-.21,0-1.632.258-7.518-.016-9.069-2.172,0-6.293-.193-7.877-.262" transform="translate(4401.243 -2950.169)" fill="#009641"/>
    <path id="Caminho_6317" data-name="Caminho 6317" d="M3.655,59.336c-.193.032-.971.258-1.39.387-.6.177-.322.971-.032,1A2.472,2.472,0,0,0,4.3,59.771c.173-.286-.31-.516-.649-.435" transform="translate(4403.302 -2968.565)" fill="#fff"/>
    <path id="Caminho_6318" data-name="Caminho 6318" d="M3.85,63.692c-.713.355-1.422.29-2.006.729a.359.359,0,0,0,.064.58c.661.338,2.667-.193,3.413-.923.242-.258-.048-.761-.5-.713a2.943,2.943,0,0,0-.971.326" transform="translate(4403.414 -2970.979)" fill="#fff"/>
    <path id="Caminho_6319" data-name="Caminho 6319" d="M3.725,68.276c-.87.262-1.277.31-1.116.81.193.661,2.78.113,3.022-.794.246-1.015-1.289-.193-1.906-.016" transform="translate(4402.906 -2973.625)" fill="#fff"/>
    <path id="Caminho_6320" data-name="Caminho 6320" d="M3.583,73.327c-.451.113-.681.21-.778.467-.242.6.778.649,1.084.516.778-.355,1.583-.355,1.438-.987-.129-.463-1.128-.141-1.745,0" transform="translate(4402.79 -2976.783)" fill="#fff"/>
    <path id="Caminho_6321" data-name="Caminho 6321" d="M135,55.433c-.21-.709-2.458-.729-2.716-.177-.193.419,1.213.564,1.358.58.693.085,1.487.085,1.358-.4" transform="translate(4325.468 -2965.908)" fill="#fff"/>
    <path id="Caminho_6322" data-name="Caminho 6322" d="M132.826,59.08c-.516-.129-1.926-.21-1.926.616,0,.306.81.451.971.467.842.081,2.313.258,2.393-.419.032-.338-.826-.52-1.438-.665" transform="translate(4326.283 -2968.374)" fill="#fff"/>
    <path id="Caminho_6323" data-name="Caminho 6323" d="M132.257,63.992c-.745.145-1.91-.193-2.039.532,0,0-.048.338.467.483.713.21,2.748.064,2.812-.564.085-.387-.371-.6-1.241-.451" transform="translate(4326.691 -2971.327)" fill="#fff"/>
    <path id="Caminho_6324" data-name="Caminho 6324" d="M132.109,68.491a3.718,3.718,0,0,1-1.39-.032c-.21-.032-.467.4-.21.58a2.316,2.316,0,0,0,2.361.242.518.518,0,0,0,.435-.564c-.165-.612-.713-.306-1.2-.226" transform="translate(4326.581 -2973.953)" fill="#fff"/>
    <rect id="Retângulo_598" data-name="Retângulo 598" width="0.306" height="16.749" transform="translate(4432.61 -2911.683)" fill="#fff"/>
    <path id="Caminho_6325" data-name="Caminho 6325" d="M21.634,75.309c.177-.355.939-2.522,1.052-2.7.016-.016-.113-.355.387-.306a1.044,1.044,0,0,1,.842.874c.177.645.274,1.777.483,2.345a.26.26,0,0,1-.048.29c-.064.048-.177.064-.371-.1a1.022,1.022,0,0,1-.242-.58,2.5,2.5,0,0,0-1.277-.016,4.549,4.549,0,0,1-.338.725c-.048.064-.129.081-.258-.016-.181-.149-.326-.278-.23-.52m1.958-.81a5.964,5.964,0,0,1-.113-.693,7.927,7.927,0,0,0-.193-.842c0-.032,0-.016-.016,0,0,0-.451,1.084-.564,1.438a3.132,3.132,0,0,1,.886.1" transform="translate(4391.544 -2976.315)" fill="#fff"/>
    <path id="Caminho_6326" data-name="Caminho 6326" d="M30.741,73.589c.532.226.939.89.371,1.39a1.144,1.144,0,0,1-.226.161c.032,0,.081,0,.1.016a.77.77,0,0,1,.435.4c.177.387-.145.709-.516.858a1.723,1.723,0,0,1-1.567-.177.079.079,0,0,1,.032-.129c.016-.064-.016-.048,0-.1-.016-.419-.016-.89,0-1.342.016-.193.048-.451.064-.645a.579.579,0,0,1-.193-.129c-.242-.258.145-.387.467-.419a1.93,1.93,0,0,1,1.035.109m-.58.29a.2.2,0,0,0-.145.081,8.239,8.239,0,0,0-.081.907s0,.081.016.081a.531.531,0,0,0,.226,0,1.17,1.17,0,0,0,.451-.161.494.494,0,0,0,0-.842,1.135,1.135,0,0,0-.467-.064m.145,1.471c-.1.016-.226.032-.371.064a5.257,5.257,0,0,0,.032.6c0,.032.032.048.048.064a.559.559,0,0,0,.322.048.748.748,0,0,0,.483-.129c.355-.306-.016-.677-.516-.645" transform="translate(4387.031 -2977.005)" fill="#fff"/>
    <path id="Caminho_6327" data-name="Caminho 6327" d="M42.149,73.915c-.016-.226.29-.274.483.016a.246.246,0,0,1,.064.161c.016.306.081,1.861.032,2.393,0,.064,0,.193-.113.193-.113.016-.226-.032-.419-.274a.333.333,0,0,1-.016-.226c.016-.971-.032-1.974-.032-2.264" transform="translate(4379.276 -2977.169)" fill="#fff"/>
    <path id="Caminho_6328" data-name="Caminho 6328" d="M37.242,75.872c.113.145.161.258.338.306.161.032,0,.371-.29.338-.355-.032-.665-.693-.907-1a.739.739,0,0,1-.258.064c0,.258,0,.6-.016.745,0,.081,0,.193-.113.21-.129,0-.226-.048-.419-.274a.431.431,0,0,1-.032-.29c-.016-.677-.016-1.261,0-1.745-.145-.081-.387-.322-.242-.5a1.515,1.515,0,0,1,.987-.258c.435.032,1.181.242,1.2.923a1.066,1.066,0,0,1-.58.89,3.924,3.924,0,0,0,.334.592m-.29-1.583c-.1-.371-.616-.274-.874-.242,0,.226.016.612.032,1.019.568-.113.923-.4.842-.778" transform="translate(4383.39 -2977.012)" fill="#fff"/>
    <path id="Caminho_6329" data-name="Caminho 6329" d="M44.909,73.966a8.058,8.058,0,0,1,.048,1.551c-.016.193-.032.564-.048.7a.471.471,0,0,0,.274.387c.145.064.29.032.29-.113.016-.161.081-1.471.048-1.728a6.93,6.93,0,0,0,.89,1.358c.145.161.242.258.371.387.177.145.483.113.483-.113,0-.258-.032-2.28-.032-2.393a.432.432,0,0,0-.338-.419.163.163,0,0,0-.21.21c0,.193.016,1.728,0,1.986-.29-.258-.907-1.616-1.326-1.986-.226-.177-.371-.081-.387-.032-.016,0-.1.032-.064.21" transform="translate(4377.633 -2977.075)" fill="#fff"/>
    <path id="Caminho_6330" data-name="Caminho 6330" d="M53,76.145a.515.515,0,0,1-.306.113c-.274,0-.6-.355-.6-1.116.032-.58.355-1.2.677-1.2.322.016.645.419.612,1.229a1.519,1.519,0,0,1-.145.665.6.6,0,0,0-.467-.081c-.1.044-.278.29.226.387m.774-.1a2.08,2.08,0,0,0,.193-.939,1.319,1.319,0,0,0-.858-1.406,1.018,1.018,0,0,0-.6-.193c-.5,0-1.019.681-1.019,1.583.016,1.309.826,1.5,1.374,1.487a.942.942,0,0,0,.612-.21c.21.161.322.274.435.21a.246.246,0,0,0,.064-.322c-.024-.081-.073-.129-.205-.209" transform="translate(4373.699 -2977.039)" fill="#fff"/>
    <path id="Caminho_6331" data-name="Caminho 6331" d="M39.9,64.965c.145-.322.826-2.2.923-2.345,0-.016-.1-.306.322-.274.21.016.58.161.745.761.145.548.226,1.551.419,2.039,0,0,.064.161-.048.242-.064.048-.161.064-.322-.081a1.034,1.034,0,0,1-.21-.5,2.265,2.265,0,0,0-1.116-.016,4.34,4.34,0,0,1-.29.633c-.048.048-.113.064-.226-.016-.165-.121-.278-.234-.2-.443m1.7-.709c-.032-.145-.1-.548-.1-.612-.048-.242-.1-.467-.161-.713-.016-.048-.016-.016-.016-.016s-.387.939-.483,1.261a3,3,0,0,1,.757.081" transform="translate(4380.635 -2970.371)" fill="#fff"/>
    <path id="Caminho_6332" data-name="Caminho 6332" d="M35.371,64.2c-.032.58-.338.987-1.229.939.032-.29.064-1.728.032-1.954.129-.016,1.261,0,1.2,1.015m-1.7.89a.228.228,0,0,0-.064.4,1.589,1.589,0,0,0,.971.129,1.286,1.286,0,0,0,1.019-.483,1.655,1.655,0,0,0,.129-1.519,1.6,1.6,0,0,0-1.229-.89c-.355-.081-1-.048-1.1.129-.1.193.064.274.258.371,0,.31.016,1.6.016,1.861" transform="translate(4384.519 -2970.575)" fill="#fff"/>
    <path id="Caminho_6333" data-name="Caminho 6333" d="M15.714,63.416c.145,0,.306-.048.322-.161.016-.338-.129-.322-.322-.322-.048,0-.58,0-.81.032,0-.048.016-.729.032-.907.113-.032.907-.048.939-.048s.048-.016.081.016c.048.032.4.226.371-.145-.048-.4-.633-.451-.923-.451-.306,0-.955.064-1.1.064-.113.016-.193.032-.177.177,0,.129.081.193.242.322-.016.21-.064,1.052-.048,1.39,0,.355.048.677.064.874a.207.207,0,0,0-.048.258c.226.435.371.419.532.29s.048-.612.016-.729c-.016-.129-.016-.467-.016-.645a.816.816,0,0,0,.355.016c.185-.016.379-.016.492-.032" transform="translate(4396.009 -2969.825)" fill="#fff"/>
    <path id="Caminho_6334" data-name="Caminho 6334" d="M26.767,62.866A6.826,6.826,0,0,1,26.8,64.4c-.016.21-.032.564-.032.693a.457.457,0,0,0,.274.4c.145.048.274.032.29-.129,0-.161.064-1.454.048-1.712a5.925,5.925,0,0,0,.89,1.358,2.684,2.684,0,0,0,.371.371c.161.161.467.113.467-.113,0-.258-.016-2.28-.016-2.393a.432.432,0,0,0-.338-.419c-.242-.048-.226.161-.226.226,0,.193.016,1.728.016,1.974-.29-.242-.923-1.616-1.342-1.974-.226-.193-.371-.081-.387-.048-.016,0-.081.032-.048.23" transform="translate(4388.466 -2970.436)" fill="#fff"/>
    <path id="Caminho_6335" data-name="Caminho 6335" d="M59.794,64.068c.032-.58.355-1.213.677-1.2s.649.419.616,1.229-.435,1.084-.7,1.084-.6-.355-.6-1.116m.774,1.442c.483,0,1.116-.322,1.1-1.471a1.386,1.386,0,0,0-.858-1.422,1.181,1.181,0,0,0-.6-.177c-.5,0-1.019.665-1.019,1.567.02,1.322.83,1.5,1.378,1.5" transform="translate(4369.101 -2970.428)" fill="#fff"/>
    <path id="Caminho_6336" data-name="Caminho 6336" d="M20.786,63.138a4.626,4.626,0,0,0-.032,1.583.581.581,0,0,0,.633.355c.21-.016.4-.193.387-.939-.016-.729-.032-1.019-.048-1.164a.5.5,0,0,1,.129-.355c.1-.081.306-.145.516.226.081.145-.1.274-.081.355,0,.161.064,1,.048,1.309-.032.4-.081.923-.665,1.035a1.562,1.562,0,0,1-.645-.048,1.254,1.254,0,0,1-.612-.451,3.818,3.818,0,0,1-.193-2.006c.016-.145-.081-.338.1-.4.113-.064.306.064.435.258a.458.458,0,0,1,.032.246" transform="translate(4392.392 -2970.498)" fill="#fff"/>
    <path id="Caminho_6337" data-name="Caminho 6337" d="M48.021,64.574a.716.716,0,0,1-.6.532c-.274,0-.6-.371-.6-1.116.032-.584.355-1.213.677-1.2.242.016.467.193.564.629.064.242.681.355.564-.016a1.353,1.353,0,0,0-1.39-1.068c-.532.032-1.019.681-1.019,1.583.016.923.4,1.293.826,1.422a1.028,1.028,0,0,0-.145.355c0,.081.032.1.161.113.161.032.177-.048.177-.064a.476.476,0,0,1,.113-.161,1.393,1.393,0,0,1,.113-.161h.129a1.036,1.036,0,0,0,1.019-.826c.137-.512-.544-.185-.592-.024" transform="translate(4376.845 -2970.367)" fill="#fff"/>
    <path id="Caminho_6338" data-name="Caminho 6338" d="M52.7,64.245c.145-.306.826-2.2.923-2.345,0-.016-.1-.306.322-.274a.908.908,0,0,1,.745.761c.161.564.242,1.551.419,2.039a.241.241,0,0,1-.048.258c-.064.032-.161.048-.322-.1a1.04,1.04,0,0,1-.21-.483,2.008,2.008,0,0,0-1.116-.032,3.856,3.856,0,0,1-.29.649c-.048.048-.113.064-.226-.032-.149-.121-.278-.234-.2-.443m1.7-.693c-.032-.161-.1-.564-.1-.612a6.08,6.08,0,0,0-.161-.729c0-.032-.016-.016-.016,0,0,0-.387.939-.483,1.245a2.335,2.335,0,0,1,.757.1m.048-2.442a5.522,5.522,0,0,0-.987.1c-.161.032-.242.081-.258.21,0,.161.21.113.226.113a1.017,1.017,0,0,1,.4-.016,3.482,3.482,0,0,0,.633-.016c.161-.016.338.016.306-.242,0-.145-.145-.145-.322-.145" transform="translate(4372.989 -2969.634)" fill="#fff"/>
    <path id="Caminho_6339" data-name="Caminho 6339" d="M82.448,60.136a2.355,2.355,0,0,1-.048-.548.64.64,0,0,0,.258,0c.113,0,.226-.016.355-.016.161-.016.242-.048.258-.129,0-.113-.016-.193-.064-.226a.408.408,0,0,0-.177-.016c-.145,0-.355.016-.612.016,0-.226,0-.451.016-.661a1.551,1.551,0,0,1,.387-.032c.177-.016.29-.016.322-.016s.048,0,.064.016a.269.269,0,0,0,.177.064c.081,0,.113-.064.1-.177-.032-.226-.258-.338-.693-.338-.081,0-.242.016-.451.032-.226.016-.355.016-.371.016-.1.016-.145.048-.145.113a.324.324,0,0,0,.064.129,1.132,1.132,0,0,0,.129.145C82,58.846,82,59.2,82,59.559c0,.113.016.29.032.516,0,.016-.016.032-.032.048a.109.109,0,0,0-.064.1.335.335,0,0,0,.081.193.321.321,0,0,0,.193.129c.322.032.649.048.971.048a.628.628,0,0,0,.258-.032c.1-.032.145-.064.145-.129a.348.348,0,0,0-.1-.226.236.236,0,0,0-.21-.1.136.136,0,0,0-.1.032.572.572,0,0,1-.161.032,5.414,5.414,0,0,1-.568-.036m1.793-1.261.193.483a2.4,2.4,0,0,0,.306.612.4.4,0,0,0,.338.21.1.1,0,0,0,.1-.081c.064-.193.113-.387.177-.58a2.76,2.76,0,0,1,.242-.665c0,.145,0,.387.016.745,0,.21.016.4.016.6a.349.349,0,0,0,.081.226.292.292,0,0,0,.274.113c.081,0,.113-.048.113-.145v-.113a9.05,9.05,0,0,1-.016-.907,7.475,7.475,0,0,1,0-.939.39.39,0,0,0-.064-.21.27.27,0,0,0-.193-.161.3.3,0,0,0-.129-.032.123.123,0,0,0-.081.032,1.973,1.973,0,0,0-.419.649,4.036,4.036,0,0,0-.29.842,2.619,2.619,0,0,0-.645-1.293.552.552,0,0,0-.274-.113.272.272,0,0,0-.161.048c-.064,0-.1.048-.1.129a.7.7,0,0,1,.016.081,3.759,3.759,0,0,1,.048.745,8.99,8.99,0,0,1-.048,1.019.422.422,0,0,0,.032.242.338.338,0,0,0,.242.177c.016,0,.032.016.048.016.1,0,.145-.081.145-.226.016-.322.032-.842.032-1.5m2.844.923a5.014,5.014,0,0,1-.016.633c0,.048,0,.081-.016.1,0,.048-.032.064-.081.064-.1,0-.21-.064-.338-.226a.3.3,0,0,1-.032-.226c-.016-.745-.016-1.229,0-1.471a.491.491,0,0,1-.161-.113.335.335,0,0,1-.081-.193.139.139,0,0,1,.048-.1c.048-.081.177-.129.371-.177a1.457,1.457,0,0,1,.451-.032,1.371,1.371,0,0,1,.612.177.716.716,0,0,1,.387.584.739.739,0,0,1-.242.532,1.7,1.7,0,0,1-.5.338,1.518,1.518,0,0,1-.4.109m.7-1.068c-.048-.161-.177-.226-.419-.226a2.687,2.687,0,0,0-.306.016c0,.177,0,.467.016.858a1.276,1.276,0,0,0,.516-.21.418.418,0,0,0,.193-.338Zm2.264,1.326c.064.081.1.145.113.145a.334.334,0,0,0,.161.1c.032,0,.048.032.048.064a.171.171,0,0,1-.081.145.211.211,0,0,1-.209.064c-.129,0-.258-.113-.419-.322-.113-.161-.226-.338-.338-.5a.677.677,0,0,1-.226.048,3.66,3.66,0,0,1,0,.633c0,.048,0,.081-.016.1-.016.048-.032.064-.081.064a.5.5,0,0,1-.355-.226c-.04-.052-.04-.117-.024-.23-.016-.745-.016-1.229,0-1.471a.491.491,0,0,1-.161-.113.335.335,0,0,1-.081-.193.139.139,0,0,1,.048-.1c.048-.081.177-.129.355-.177a1.593,1.593,0,0,1,.467-.032,1.371,1.371,0,0,1,.612.177.665.665,0,0,1,.371.584.818.818,0,0,1-.483.725c.032.064.064.145.129.274a1.2,1.2,0,0,0,.169.242m-.262-1.326c-.032-.161-.161-.226-.4-.226a2.925,2.925,0,0,0-.322.016c.016.177.016.467.032.858a1.381,1.381,0,0,0,.516-.21.418.418,0,0,0,.193-.338.213.213,0,0,0-.016-.1m1.358,1.406a2.355,2.355,0,0,1-.048-.548.657.657,0,0,0,.258,0c.113,0,.242-.016.371-.016.145-.016.242-.048.242-.129,0-.113-.016-.193-.064-.226a.408.408,0,0,0-.177-.016c-.145,0-.355.016-.612.016,0-.226,0-.451.016-.661a1.55,1.55,0,0,1,.387-.032c.177-.016.29-.016.338-.016a.059.059,0,0,1,.048.016.269.269,0,0,0,.177.064c.081,0,.113-.064.1-.177-.016-.226-.258-.338-.7-.338-.081,0-.242.016-.451.032-.226.016-.355.016-.371.016-.1.016-.145.048-.145.113a.324.324,0,0,0,.064.129s.048.048.129.145c-.016.338-.016.7-.016,1.052a4.033,4.033,0,0,0,.048.516l-.048.048a.1.1,0,0,0-.048.1.31.31,0,0,0,.064.193.375.375,0,0,0,.193.129,9.817,9.817,0,0,0,.987.048.668.668,0,0,0,.258-.032c.081-.032.129-.064.129-.129a.348.348,0,0,0-.1-.226c-.064-.064-.129-.113-.193-.1a.174.174,0,0,0-.113.032.477.477,0,0,1-.161.032,5.483,5.483,0,0,1-.564-.036m2.071.451a1.336,1.336,0,0,1-.516-.1c-.193-.081-.306-.193-.306-.322-.016-.113.048-.161.177-.161h.1a1.025,1.025,0,0,1,.29.1.714.714,0,0,0,.242.048.362.362,0,0,0,.338-.1.284.284,0,0,0,.1-.21c0-.016,0-.032-.016-.032-.032-.113-.145-.226-.371-.355a5.77,5.77,0,0,1-.564-.371.546.546,0,0,1-.274-.467.533.533,0,0,1,.258-.338,1.014,1.014,0,0,1,.5-.193,1.311,1.311,0,0,1,.649.129c.177.1.274.193.274.29,0,.081-.064.113-.193.113a1.089,1.089,0,0,1-.226-.032,2.408,2.408,0,0,0-.258-.1.982.982,0,0,0-.274-.048.239.239,0,0,0-.145.032.2.2,0,0,0-.064.129q0,.145.338.387c.161.113.338.21.5.306a1.188,1.188,0,0,1,.29.274.536.536,0,0,1-.081.774.85.85,0,0,1-.483.226,1.211,1.211,0,0,1-.278.016m1.18-.387c.032-.064.161-.4.4-1.019.209-.564.338-.89.371-.939-.016.016-.016,0-.016-.064,0-.113.1-.177.274-.161a.592.592,0,0,1,.322.145.916.916,0,0,1,.306.5c.032.113.081.4.161.858a3.959,3.959,0,0,0,.193.826v.081a.183.183,0,0,1-.048.129.145.145,0,0,1-.081.016.355.355,0,0,1-.193-.1.306.306,0,0,1-.1-.161c-.016-.032-.032-.113-.081-.242a1.708,1.708,0,0,0-.467-.064,2.4,2.4,0,0,0-.451.048c-.048.1-.081.21-.129.306a.685.685,0,0,1-.113.226.122.122,0,0,1-.064.032.214.214,0,0,1-.129-.048c-.113-.1-.177-.177-.177-.258a.315.315,0,0,1,.016-.113m1.422-.584a4.3,4.3,0,0,1-.081-.516c-.032-.129-.064-.338-.145-.6,0-.016,0-.016-.016,0-.193.483-.322.826-.4,1.035a2.081,2.081,0,0,1,.645.081M81.622,64.838c.016-.048.145-.4.387-1.019a9.88,9.88,0,0,1,.371-.923v-.064c0-.129.081-.177.274-.161a.512.512,0,0,1,.322.129,1,1,0,0,1,.29.5,7.369,7.369,0,0,1,.161.858,3.959,3.959,0,0,0,.193.826.175.175,0,0,1,.016.081.147.147,0,0,1-.064.129.122.122,0,0,1-.064.032.279.279,0,0,1-.193-.1.48.48,0,0,1-.113-.177,2.039,2.039,0,0,1-.064-.242,1.791,1.791,0,0,0-.467-.064,2.558,2.558,0,0,0-.467.048,2.686,2.686,0,0,1-.129.322c-.048.113-.081.177-.1.21-.032.016-.048.032-.081.032a.257.257,0,0,1-.129-.048c-.113-.1-.177-.177-.177-.258a.5.5,0,0,1,.032-.113m1.422-.58c-.016-.064-.048-.226-.1-.516-.016-.129-.064-.322-.129-.6,0-.016-.016-.016-.016,0a10.831,10.831,0,0,0-.4,1.052,1.646,1.646,0,0,1,.645.06m1.342-.745a4.238,4.238,0,0,1,.193.5,2.262,2.262,0,0,0,.306.6.42.42,0,0,0,.338.209.088.088,0,0,0,.1-.064c.064-.21.113-.4.177-.6a3.083,3.083,0,0,1,.242-.665c0,.145.016.4.016.761.016.193.016.387.016.58a.4.4,0,0,0,.081.242.322.322,0,0,0,.274.1c.081,0,.113-.048.113-.145v-.113a9.042,9.042,0,0,1-.016-.907,7.067,7.067,0,0,1,0-.923.4.4,0,0,0-.064-.226.218.218,0,0,0-.193-.145.183.183,0,0,0-.129-.048.123.123,0,0,0-.081.032,1.99,1.99,0,0,0-.419.645,3.959,3.959,0,0,0-.29.842,2.473,2.473,0,0,0-.645-1.277.469.469,0,0,0-.274-.129.272.272,0,0,0-.161.048c-.064,0-.1.048-.1.129,0,.032.016.048.016.081a3.842,3.842,0,0,1,.048.761,8.881,8.881,0,0,1-.048,1,.332.332,0,0,0,.048.242.285.285,0,0,0,.226.177.059.059,0,0,0,.048.016c.113,0,.145-.081.145-.21.016-.334.032-.834.032-1.515m2.2-.6c0-.113.048-.161.145-.161a.359.359,0,0,1,.274.177.353.353,0,0,1,.048.129c.032.681.032,1.2.032,1.551v.435a.283.283,0,0,0-.016.1.082.082,0,0,1-.081.064c-.113.016-.226-.064-.355-.226a.36.36,0,0,1-.032-.193c.016-.177.016-.371.016-.564,0-.129-.016-.564-.032-1.309m2.051.193a.384.384,0,0,0,.1.226.349.349,0,0,0,.306.161c.048,0,.081-.048.081-.113a.94.94,0,0,0-.081-.322.63.63,0,0,0-.193-.242.7.7,0,0,0-.419-.145.909.909,0,0,0-.58.242,1.312,1.312,0,0,0-.371.532,1.878,1.878,0,0,0-.129.681,1.164,1.164,0,0,0,.274.794.955.955,0,0,0,.713.306.927.927,0,0,0,.5-.129.8.8,0,0,0,.322-.371.961.961,0,0,0,.113-.419.23.23,0,0,0-.1-.193A.861.861,0,0,0,89,64.052a2.836,2.836,0,0,0-.633-.032c-.129,0-.177.032-.177.1a.174.174,0,0,0,.032.113.366.366,0,0,0,.371.21.8.8,0,0,0,.258-.032.669.669,0,0,1-.193.322.511.511,0,0,1-.371.145.5.5,0,0,1-.29-.081.547.547,0,0,1-.258-.532,1.3,1.3,0,0,1,.081-.5,1.542,1.542,0,0,1,.258-.483.55.55,0,0,1,.4-.226.191.191,0,0,1,.161.056m.729,1.728c.032-.048.161-.4.4-1.019a9.875,9.875,0,0,1,.371-.923c-.016,0-.016-.016-.016-.064,0-.129.1-.177.274-.161a.479.479,0,0,1,.322.129.916.916,0,0,1,.306.5c.032.113.081.4.161.858a3.959,3.959,0,0,0,.193.826v.081a.183.183,0,0,1-.048.129c-.032.016-.048.032-.081.032a.355.355,0,0,1-.193-.1.462.462,0,0,1-.1-.177c-.016-.032-.032-.113-.081-.242a1.708,1.708,0,0,0-.467-.064,2.4,2.4,0,0,0-.451.048c-.048.113-.081.21-.129.322a.743.743,0,0,1-.113.21.122.122,0,0,1-.064.032.214.214,0,0,1-.129-.048c-.113-.1-.177-.177-.177-.258a.337.337,0,0,1,.016-.113m1.422-.58a4.305,4.305,0,0,1-.081-.516c-.032-.129-.064-.322-.145-.6,0-.016,0-.016-.016,0-.193.483-.322.842-.4,1.052a1.617,1.617,0,0,1,.645.06m3.38-.226c-.032.548-.371.81-1.035.778a7.215,7.215,0,0,0,.032-.826,5.857,5.857,0,0,0,0-.794,1.2,1.2,0,0,1,.564.1.679.679,0,0,1,.439.745m-1.422.741a.17.17,0,0,0-.129.161c0,.193.21.29.645.29a1.219,1.219,0,0,0,.242-.016,1.234,1.234,0,0,0,.548-.145.9.9,0,0,0,.306-.258,1.215,1.215,0,0,0,.21-.729,1.574,1.574,0,0,0-.113-.532,1.244,1.244,0,0,0-1.019-.725,1.264,1.264,0,0,0-.355-.032c-.322,0-.516.048-.564.145a.123.123,0,0,0-.032.081c0,.064.081.129.242.21,0,.048.016.322.016.794v.757Zm1.873.064c.032-.048.161-.4.4-1.019a9.883,9.883,0,0,1,.371-.923c-.016,0-.016-.016-.016-.064,0-.129.1-.177.29-.161a.549.549,0,0,1,.322.129,1,1,0,0,1,.29.5c.032.113.081.4.161.858a3.959,3.959,0,0,0,.193.826.7.7,0,0,0,.016.081.2.2,0,0,1-.064.129.123.123,0,0,1-.081.032.28.28,0,0,1-.177-.1.48.48,0,0,1-.113-.177,2.047,2.047,0,0,1-.064-.242,1.818,1.818,0,0,0-.483-.064,2.4,2.4,0,0,0-.451.048c-.048.113-.081.21-.129.322a.742.742,0,0,1-.113.21.122.122,0,0,1-.064.032.257.257,0,0,1-.129-.048c-.113-.1-.177-.177-.177-.258a.337.337,0,0,1,.016-.113m1.422-.58a4.3,4.3,0,0,1-.081-.516c-.032-.129-.064-.322-.129-.6-.016-.016-.016-.016-.016,0a10.832,10.832,0,0,0-.4,1.052,1.538,1.538,0,0,1,.629.06M83.709,69.173a.738.738,0,0,1-.226.338.429.429,0,0,1-.258.1.387.387,0,0,1-.338-.226,1.262,1.262,0,0,1-.161-.693,1.2,1.2,0,0,1,.193-.665c.113-.21.242-.322.371-.306.226,0,.387.177.467.516a.216.216,0,0,0,.113.129.429.429,0,0,0,.193.048c.113,0,.161-.048.161-.129v-.064a1.266,1.266,0,0,0-.4-.649,1.119,1.119,0,0,0-.761-.226.814.814,0,0,0-.58.371,1.7,1.7,0,0,0-.242.923c0,.842.371,1.245,1.132,1.229a.839.839,0,0,0,.483-.129.95.95,0,0,0,.355-.532.2.2,0,0,0,.016-.1c0-.1-.048-.129-.129-.129a.441.441,0,0,0-.226.064.494.494,0,0,0-.161.129m2.228.161a1.655,1.655,0,0,1,.113.161.753.753,0,0,0,.161.081c.048.016.064.032.064.081a.223.223,0,0,1-.081.145.37.37,0,0,1-.226.064.718.718,0,0,1-.4-.338c-.113-.161-.226-.338-.338-.5a.753.753,0,0,1-.226.064v.616a.426.426,0,0,0-.016.113.089.089,0,0,1-.081.048c-.113.016-.226-.064-.355-.226a.288.288,0,0,1-.032-.226V67.96a.522.522,0,0,1-.145-.129.28.28,0,0,1-.1-.177.146.146,0,0,1,.048-.113.61.61,0,0,1,.371-.161,1.541,1.541,0,0,1,.451-.048,1.517,1.517,0,0,1,.629.193.685.685,0,0,1,.371.564.9.9,0,0,1-.483.745,1.844,1.844,0,0,0,.129.258q.1.169.145.242M85.7,68.008c-.048-.145-.177-.226-.419-.226-.048,0-.161.016-.306.032,0,.161.016.451.016.842a1.185,1.185,0,0,0,.516-.209.418.418,0,0,0,.193-.338Zm.794-.451a.128.128,0,0,1,.145-.145.336.336,0,0,1,.274.161.546.546,0,0,1,.048.129c.032.7.048,1.213.048,1.551,0,.193-.016.338-.016.435a.363.363,0,0,0-.016.113.089.089,0,0,1-.081.048c-.113.016-.226-.064-.355-.226a.281.281,0,0,1-.016-.193v-.564c0-.133,0-.568-.032-1.309m.79,1.938c.016-.064.161-.4.387-1.035.226-.564.338-.874.371-.923v-.06c0-.129.081-.177.274-.161a.622.622,0,0,1,.322.129,1,1,0,0,1,.29.5,7.2,7.2,0,0,1,.161.874,4.586,4.586,0,0,0,.193.826.1.1,0,0,1,.016.064.131.131,0,0,1-.064.129.122.122,0,0,1-.064.032.279.279,0,0,1-.193-.1.579.579,0,0,1-.113-.161,1.893,1.893,0,0,0-.064-.258,2.916,2.916,0,0,0-.467-.064,2.557,2.557,0,0,0-.467.048,2.688,2.688,0,0,1-.129.322,1.409,1.409,0,0,1-.1.21c-.032.016-.048.032-.081.032a.174.174,0,0,1-.113-.048c-.129-.1-.193-.177-.193-.258a.228.228,0,0,1,.032-.1m1.426-.6c-.016-.048-.048-.226-.1-.5a5.406,5.406,0,0,0-.129-.6c0-.016,0-.016-.016,0-.193.467-.338.826-.4,1.035a2.167,2.167,0,0,1,.645.064m.838-1.229a5.164,5.164,0,0,1,.048.794,4.531,4.531,0,0,1-.016.483c0,.048-.016.242-.032.58a.31.31,0,0,0,.064.193.566.566,0,0,0,.161.129.315.315,0,0,0,.113.016c.081,0,.129-.032.129-.113.032-.81.048-1.245.048-1.293v-.145a4.961,4.961,0,0,0,.745,1.132c.064.081.161.177.306.322a.281.281,0,0,0,.193.064c.129,0,.193-.048.193-.161.016-.081,0-.435,0-1.035,0-.633-.016-.939-.016-.955a.354.354,0,0,0-.064-.21.409.409,0,0,0-.21-.145h-.064c-.081,0-.129.064-.129.177.016.1.016.371.016.81v.842a4.666,4.666,0,0,1-.516-.778,3.656,3.656,0,0,0-.6-.858.347.347,0,0,0-.21-.1c-.064,0-.1.016-.113.048-.032,0-.048.048-.048.113v.085Z" transform="translate(4355.726 -2967.786)" fill="#fff"/>
    <path id="Caminho_6340" data-name="Caminho 6340" d="M108.407,82.947a.658.658,0,0,1-.242.338.429.429,0,0,1-.258.1.387.387,0,0,1-.338-.226,1.143,1.143,0,0,1-.161-.7,1.413,1.413,0,0,1,.177-.677c.129-.21.258-.322.387-.306.242,0,.387.177.467.516a.2.2,0,0,0,.129.129.338.338,0,0,0,.177.064c.113,0,.177-.048.177-.145a.122.122,0,0,0-.016-.064,1.219,1.219,0,0,0-.387-.645,1.189,1.189,0,0,0-.778-.226.736.736,0,0,0-.584.387,1.514,1.514,0,0,0-.258.923c0,.649.242,1.035.7,1.181a.767.767,0,0,0-.129.29c0,.048.048.081.129.1a.071.071,0,0,1,.048.016c.081,0,.113-.032.113-.064-.016-.016.016-.064.081-.145.032-.048.081-.081.1-.129h.113a.845.845,0,0,0,.838-.677.635.635,0,0,0,.032-.1.128.128,0,0,0-.145-.145.48.48,0,0,0-.226.081c-.077.044-.125.077-.141.125m.7.322c.016-.064.145-.4.387-1.035a9.871,9.871,0,0,1,.371-.923.094.094,0,0,1-.016-.064c0-.129.1-.177.29-.161a.622.622,0,0,1,.322.129,1,1,0,0,1,.29.5,7.2,7.2,0,0,1,.161.874,4.5,4.5,0,0,0,.193.826c0,.016.016.048.016.064a.131.131,0,0,1-.064.129.122.122,0,0,1-.064.032.279.279,0,0,1-.193-.1.578.578,0,0,1-.113-.161c-.016-.048-.032-.129-.064-.258a2.915,2.915,0,0,0-.467-.064,2.424,2.424,0,0,0-.467.048,2.686,2.686,0,0,1-.129.322,1.407,1.407,0,0,1-.1.21c-.032.016-.048.032-.081.032a.257.257,0,0,1-.129-.048c-.113-.1-.177-.177-.177-.258a.229.229,0,0,1,.032-.1m1.422-.6a2.847,2.847,0,0,1-.1-.5,5.186,5.186,0,0,0-.129-.6c0-.016-.016-.016-.016,0a9.5,9.5,0,0,0-.4,1.035,2.039,2.039,0,0,1,.645.06" transform="translate(4340.614 -2981.56)" fill="#fff"/>
  </g>
</svg>
