<svg id="Grupo_2583" data-name="Grupo 2583" xmlns="http://www.w3.org/2000/svg" width="18.082" height="18.082" viewBox="0 0 18.082 18.082">
  <path id="Caminho_5652" data-name="Caminho 5652" d="M13.12,5.708c2.414,0,2.7.009,3.653.053a5,5,0,0,1,1.679.311,2.994,2.994,0,0,1,1.716,1.716,5,5,0,0,1,.311,1.679c.043.953.053,1.239.053,3.653s-.009,2.7-.053,3.653a5,5,0,0,1-.311,1.679,2.994,2.994,0,0,1-1.716,1.716,5,5,0,0,1-1.679.311c-.953.043-1.239.053-3.653.053s-2.7-.009-3.653-.053a5,5,0,0,1-1.679-.311,2.994,2.994,0,0,1-1.716-1.716,5,5,0,0,1-.311-1.679c-.043-.953-.053-1.239-.053-3.653s.009-2.7.053-3.653a5,5,0,0,1,.311-1.679A2.994,2.994,0,0,1,7.788,6.072a5,5,0,0,1,1.679-.311c.953-.043,1.239-.053,3.653-.053m0-1.629c-2.455,0-2.763.01-3.728.054a6.636,6.636,0,0,0-2.195.42A4.623,4.623,0,0,0,4.554,7.2a6.636,6.636,0,0,0-.42,2.195c-.044.964-.054,1.272-.054,3.727s.01,2.763.054,3.727a6.636,6.636,0,0,0,.42,2.195A4.623,4.623,0,0,0,7.2,21.686a6.636,6.636,0,0,0,2.195.42c.964.044,1.272.054,3.728.054s2.763-.01,3.728-.054a6.636,6.636,0,0,0,2.195-.42,4.623,4.623,0,0,0,2.644-2.644,6.636,6.636,0,0,0,.42-2.195c.044-.964.054-1.272.054-3.727s-.01-2.763-.054-3.727a6.636,6.636,0,0,0-.42-2.195,4.623,4.623,0,0,0-2.644-2.644,6.636,6.636,0,0,0-2.195-.42c-.964-.044-1.272-.054-3.728-.054Z" transform="translate(-4.079 -4.079)" fill="#fff"/>
  <path id="Caminho_5653" data-name="Caminho 5653" d="M131.278,126.635a4.643,4.643,0,1,0,4.643,4.643A4.643,4.643,0,0,0,131.278,126.635Zm0,7.656a3.014,3.014,0,1,1,3.014-3.014A3.014,3.014,0,0,1,131.278,134.291Z" transform="translate(-122.237 -122.237)" fill="#fff"/>
  <ellipse id="Elipse_113" data-name="Elipse 113" cx="1.085" cy="1.085" rx="1.085" ry="1.085" transform="translate(12.782 3.13)" fill="#fff"/>
</svg>
