<svg id="logo_horizontal_color" xmlns="http://www.w3.org/2000/svg" width="199.592" height="44.895" viewBox="0 0 199.592 44.895">
  <path id="Caminho_5433" data-name="Caminho 5433" d="M512.857,136.473a2.671,2.671,0,0,1,1.73,1.6,4.634,4.634,0,0,1,.488,2.087,8.075,8.075,0,0,1-1.153,3.723,6.233,6.233,0,0,1-2.129,2.148,5.091,5.091,0,0,1-2.706,1.044,1.856,1.856,0,0,1-1.641-1.228,5.006,5.006,0,0,1-.444-2.087,4.453,4.453,0,0,1,.177-1.309q1.909-5.073,5.677-5.973m14.859-3.581a2.672,2.672,0,0,1,1.73,1.6,4.632,4.632,0,0,1,.488,2.087,8.067,8.067,0,0,1-1.153,3.723,6.237,6.237,0,0,1-2.129,2.148,5.09,5.09,0,0,1-2.706,1.043,1.857,1.857,0,0,1-1.641-1.227,5.008,5.008,0,0,1-.443-2.087,4.428,4.428,0,0,1,.177-1.309Q523.947,133.792,527.716,132.893ZM500.327,153.4c.238-.867.476-1.736,2.322-.742s1.609,1.862,1.371,2.729c-.012.045-4.47,15.985,6.965,16.265,14.337.35,18.637-21.919,18.65-21.983.176-.876.35-1.752,2.207-.8s1.682,1.833,1.506,2.708c-.013.067-4.482,23.253-20.2,22.87C494.538,174,500.311,153.459,500.327,153.4Zm11.422-20.241q-4.17.287-7.54,7.324a7.711,7.711,0,0,0,.266,7.159,5.391,5.391,0,0,0,2.306,2.25,4.027,4.027,0,0,0,1.863.41,9.645,9.645,0,0,0,6.386-2.66,9.2,9.2,0,0,0,3.378-6.2,7.743,7.743,0,0,0,.925,2.621,5.4,5.4,0,0,0,2.307,2.25,4.021,4.021,0,0,0,1.862.409,9.649,9.649,0,0,0,6.387-2.66,9.082,9.082,0,0,0,3.415-7.037,10.933,10.933,0,0,0-.089-1.391,6.933,6.933,0,0,0-2.883-4.869,5.464,5.464,0,0,0-3.726-1.186q-4.169.286-7.54,7.323a7.757,7.757,0,0,0-.7,2.4c0-.03-.006-.058-.011-.088a6.93,6.93,0,0,0-2.883-4.868A5.461,5.461,0,0,0,511.749,133.159Z" transform="translate(-426.764 -129.561)" fill="#fe5100"/>
  <path id="Caminho_5434" data-name="Caminho 5434" d="M465.333,159.612a1.733,1.733,0,0,1,1.146.989,2.719,2.719,0,0,1,.324,1.3,4.781,4.781,0,0,1-.764,2.31,4,4,0,0,1-1.411,1.332,3.508,3.508,0,0,1-1.792.647,1.226,1.226,0,0,1-1.088-.761,2.939,2.939,0,0,1-.294-1.294,2.571,2.571,0,0,1,.118-.812q1.264-3.147,3.761-3.705m9.847-2.222a1.738,1.738,0,0,1,1.146.99,2.726,2.726,0,0,1,.324,1.294,4.773,4.773,0,0,1-.765,2.31,3.991,3.991,0,0,1-1.41,1.333,3.515,3.515,0,0,1-1.792.647,1.226,1.226,0,0,1-1.088-.761,2.94,2.94,0,0,1-.294-1.294,2.575,2.575,0,0,1,.118-.812Q472.682,157.948,475.18,157.39Zm-10.581.166q-2.763.178-5,4.543a4.515,4.515,0,0,0,.176,4.442,3.479,3.479,0,0,0,1.528,1.4,2.816,2.816,0,0,0,1.235.254,6.629,6.629,0,0,0,4.231-1.65,5.618,5.618,0,0,0,2.238-3.848,4.605,4.605,0,0,0,.613,1.626,3.479,3.479,0,0,0,1.528,1.4,2.823,2.823,0,0,0,1.234.254,6.629,6.629,0,0,0,4.232-1.65,5.506,5.506,0,0,0,2.263-4.365,6.421,6.421,0,0,0-.059-.863,4.258,4.258,0,0,0-1.91-3.02,3.786,3.786,0,0,0-2.468-.736q-2.763.177-5,4.543a4.575,4.575,0,0,0-.464,1.488c0-.018,0-.035-.007-.054a4.26,4.26,0,0,0-1.91-3.02A3.79,3.79,0,0,0,464.6,157.556Z" transform="translate(-414.981 -137.081)" fill="#1d1d1b"/>
  <path id="Caminho_5435" data-name="Caminho 5435" d="M439.952,164.024q-.059.867-1.146.893-1.449,0-1.449-1.677c0-.18.01-.4.03-.649a31.886,31.886,0,0,0,.181-3.3q0-2.841-.634-3.193a.953.953,0,0,0-.392-.081q-1.087,0-2.988,1.677a10.719,10.719,0,0,0-2.384,2.786,6.257,6.257,0,0,0-.695,3.49,1.83,1.83,0,0,1-.347,1.5,1.492,1.492,0,0,1-1.162.528,1.382,1.382,0,0,1-.935-.338,1.166,1.166,0,0,1-.393-.933,2.1,2.1,0,0,1,.181-.811,7.061,7.061,0,0,0,.3-1.245q.018-.58.05-1.274l-.2.118a35.014,35.014,0,0,1-4.739,2.3,15.033,15.033,0,0,1-5.313,1.218,4.312,4.312,0,0,1-3.41-1.3,2.593,2.593,0,0,1-.634-1.759q0-2.272,2.656-5.059,2.5-2.651,4.5-2.922a5.145,5.145,0,0,1,.694-.055q1.419,0,1.419.893a1.675,1.675,0,0,1-.574,1.15,1.693,1.693,0,0,1-1.207.582,4.748,4.748,0,0,1-.543-.055.936.936,0,0,0-.453,0,5.354,5.354,0,0,0-2.535,2.056,5.6,5.6,0,0,0-1.449,3.165q0,1.38,1.75,1.38a15.44,15.44,0,0,0,5.432-1.542l4.73-2.358q.154-2.435.432-5.792.151-1.921.423-4.9.241-2.029,1.267-1.975,1.509.081,1.358,1.677-.211,1.028-.6,3.869-.182,1.84-.484,5.546,3.8-3.868,6.339-3.868a2.844,2.844,0,0,1,.815.108q2.142.7,2.143,6.628,0,1.028-.091,2.192a11.767,11.767,0,0,1,.06,1.326m25.687-15.164q-.513,3.571-1.027,7.142a58.28,58.28,0,0,0-.543,7.2q0,1.081.061,2.082a2.827,2.827,0,0,1-.287,1.488,1.075,1.075,0,0,1-.981.7c-1.461,0-1.3-1.5-1.3-2.407q0-2.246.483-7.034.3-2.652.6-5.33.121-1.543.332-4.113a4.209,4.209,0,0,1,.452-2.056,1.391,1.391,0,0,1,1-.406,1.254,1.254,0,0,1,1.011.5A3.335,3.335,0,0,1,465.639,148.861Zm-51.7,8.718q.03,1.785-2.083,3.436a20.159,20.159,0,0,1-3.984,2.218,14.077,14.077,0,0,0-2.234,1.055q-.3,1.028-1.811,1.028-1.478,0-1.721-.676a1.517,1.517,0,0,1-.12-.568,1.293,1.293,0,0,1,.6-1.083,2.518,2.518,0,0,1,1.056-.433,14.053,14.053,0,0,0,4.738-1.893q3.019-1.732,3.019-2.76,0-1.651-3.773-2.57-3.532-.7-7.033-1.406-3.8-1-3.8-2.814,0-2,2.354-3.734a16.7,16.7,0,0,1,4.86-2.354,13.474,13.474,0,0,1,4.1-.811,4.336,4.336,0,0,1,2.052.406,6.073,6.073,0,0,1,1.3,1.352.567.567,0,0,1,.091.325.929.929,0,0,1-.377.7,1.36,1.36,0,0,1-.92.324,1.547,1.547,0,0,1-.966-.351,2.336,2.336,0,0,0-.785-.46,14.271,14.271,0,0,0-5.553,1.38q-3.441,1.488-3.441,2.814,0,.892,3.712,1.651,5.584,1.163,6.941,1.623Q413.9,155.333,413.935,157.579Z" transform="translate(-396.791 -133.838)" fill="#1d1d1b"/>
  <path id="Caminho_5436" data-name="Caminho 5436" d="M672.993,144.144h.5a2.661,2.661,0,0,0,.609-.04.363.363,0,0,0,.19-.138.422.422,0,0,0,.069-.245.386.386,0,0,0-.091-.266.423.423,0,0,0-.255-.129c-.055-.006-.219-.01-.495-.01h-.527Zm-.678,1.885v-3.266h1.426a2.523,2.523,0,0,1,.782.088.768.768,0,0,1,.39.313.921.921,0,0,1,.146.515.864.864,0,0,1-.222.608,1.08,1.08,0,0,1-.664.3,1.555,1.555,0,0,1,.363.275,3.726,3.726,0,0,1,.385.53l.41.637h-.81l-.489-.711a4.636,4.636,0,0,0-.357-.479.534.534,0,0,0-.2-.137,1.169,1.169,0,0,0-.341-.036h-.137v1.363Z" transform="translate(-477.221 -133.415)" fill="#1d1d1b"/>
  <path id="Caminho_5437" data-name="Caminho 5437" d="M672.9,141.291h0a2.6,2.6,0,0,0-1.82.736h0a2.465,2.465,0,0,0-.756,1.772h0a2.468,2.468,0,0,0,.756,1.772h0a2.6,2.6,0,0,0,1.82.736h0a2.6,2.6,0,0,0,1.82-.736,2.47,2.47,0,0,0,.756-1.772h0a2.468,2.468,0,0,0-.756-1.772,2.6,2.6,0,0,0-1.82-.736m0-.568h0a3.2,3.2,0,0,1,2.233.9,3.03,3.03,0,0,1,.927,2.173h0a3.028,3.028,0,0,1-.928,2.174,3.191,3.191,0,0,1-2.232.9h0a3.193,3.193,0,0,1-2.233-.9h0a3.033,3.033,0,0,1-.927-2.173h0a3.027,3.027,0,0,1,.928-2.173h0a3.191,3.191,0,0,1,2.232-.9Z" transform="translate(-476.469 -132.82)" fill="#1d1d1b"/>
  <path id="Caminho_5438" data-name="Caminho 5438" d="M567.918,149.545q0-.217-1.143-.217a38.793,38.793,0,0,0-3.973.3q-2.205.244-2.667.352a18.477,18.477,0,0,1-2.15.27q-.136,2.03-.326,5.546a64.909,64.909,0,0,0,5.96-2.759q4.273-2.273,4.3-3.49m2.286-1.326a1.539,1.539,0,0,1,.326.947q0,2.137-4.736,4.978a69.594,69.594,0,0,1-8.355,4.194q-.245,3.463-.245,5.248a9.441,9.441,0,0,0,.068.947q.068.622.068.92a1.683,1.683,0,0,1-.381,1.191,1.194,1.194,0,0,1-.9.406,1.056,1.056,0,0,1-1.144-1.055,6.114,6.114,0,0,1,.055-1.028q.028-1.516.245-6.087a.593.593,0,0,1-.19-.514,1.6,1.6,0,0,1,.217-.7q.409-4.681.409-6.709a5.047,5.047,0,0,0-.136-1.515.951.951,0,0,1-.082-.379,1.581,1.581,0,0,1,.422-1.055,1.231,1.231,0,0,1,.939-.487,1.331,1.331,0,0,1,.776.217,1.375,1.375,0,0,0,.476.244q.109.027,1.905-.163a61.828,61.828,0,0,1,6.2-.433Q569.579,147.38,570.2,148.219Zm2.641,9.5q-.272,2.651-.6,6.3a5.312,5.312,0,0,0,.272,1.731,1.47,1.47,0,0,1,.055.406,1.313,1.313,0,0,1-.354.906,1.07,1.07,0,0,1-.816.392,1.009,1.009,0,0,1-.762-.351,4.067,4.067,0,0,1-.435-2.49q.082-1.487.245-5.14.054-1.732.081-1.949.218-1.326.98-1.379a1.172,1.172,0,0,1,.979.446A1.463,1.463,0,0,1,572.846,157.716Zm16.207,3.652a11.694,11.694,0,0,1-1.932,1.379,30.368,30.368,0,0,1-4.273,2.3,12.46,12.46,0,0,1-4.79,1.218,3.7,3.7,0,0,1-3.075-1.3,2.765,2.765,0,0,1-.571-1.759q0-2.273,2.395-5.059,2.259-2.651,4.055-2.922a4.188,4.188,0,0,1,.626-.054q1.279,0,1.279.893a1.751,1.751,0,0,1-.517,1.15,1.471,1.471,0,0,1-1.088.581,3.825,3.825,0,0,1-.49-.054.763.763,0,0,0-.409,0,4.934,4.934,0,0,0-2.286,2.056,5.913,5.913,0,0,0-1.306,3.165q0,1.38,1.578,1.38a12.874,12.874,0,0,0,4.9-1.542l4.6-2.543a1.386,1.386,0,0,1,.381-.054.87.87,0,0,1,.722.378A.952.952,0,0,1,589.052,161.368Zm8.764-5.682a5.553,5.553,0,0,1-.558-.04c-.245-.028-.394-.041-.449-.041a19.78,19.78,0,0,0-3.729.514,62.67,62.67,0,0,0-.6,7.467,9.367,9.367,0,0,0,.109,1.677,1.772,1.772,0,0,1,.082.514q0,1.028-.98,1.028a1.539,1.539,0,0,1-1.1-.5,1.644,1.644,0,0,1-.449-1.339q0-1.407.3-5.439.109-.92.354-2.922a6.653,6.653,0,0,0-1.47.541q-.028.027-1.306.866a.926.926,0,0,1-.735.189q-1.143-.27-1.143-1.163a1.131,1.131,0,0,1,.49-.92,12.985,12.985,0,0,1,4.518-1.785q.354-2.219.6-4.708-.028.3-.028-1.163,0-1.38,1.007-1.379,1.226,0,1.225,2.434a39.061,39.061,0,0,1-.544,4.41c.969-.148,5.415-.9,5.415.893Q598.823,155.659,597.816,155.686ZM571.992,151.9a1.156,1.156,0,0,0-.673.357,1.2,1.2,0,0,0-.426.936q0,1.249,1.144,1.248,1.211,0,1.211-1.27a1.454,1.454,0,0,0-.336-.947A.924.924,0,0,0,571.992,151.9Zm69.145,5.917a1.122,1.122,0,0,1,.544.947,1.514,1.514,0,0,1-.789,1.3q-.028.028-1.2.92-4.165,3.166-6.587,3.166a3.846,3.846,0,0,1-3.1-1.759,5.569,5.569,0,0,1-1.253-3.463,4.895,4.895,0,0,1,.616-2.412,1.272,1.272,0,0,1-.76.255,1.774,1.774,0,0,1-.517-.108,1.736,1.736,0,0,0-.49-.108.882.882,0,0,0-.49.162q-2.286,1.271-5.2,5.735a4.662,4.662,0,0,0-.639,2.151,4.445,4.445,0,0,1-.341,1.664,1.063,1.063,0,0,1-.9.433,1.449,1.449,0,0,1-1.061-.433,1.194,1.194,0,0,1-.326-.866,6.291,6.291,0,0,1,.081-.92,24.965,24.965,0,0,0,.462-4.6,11.642,11.642,0,0,0-.6-4,.784.784,0,0,1-.055-.3.806.806,0,0,1,.381-.676,1.466,1.466,0,0,1,.871-.271,1.242,1.242,0,0,1,.871.324q.6.542.653,2.759.028,1.056.028,1.976a20.1,20.1,0,0,1,4.736-4.68,3.436,3.436,0,0,1,1.742-.487,4.048,4.048,0,0,1,1.279.217,1.058,1.058,0,0,1,.409.419,1.259,1.259,0,0,1,.217.69.912.912,0,0,1-.008.118,7.087,7.087,0,0,1,1.595-1.558,8.348,8.348,0,0,1,5.062-1.705,5.247,5.247,0,0,1,2.64.622.461.461,0,0,1,.245.433q0,.731-1.252,1.975a8.17,8.17,0,0,1-2.531,1.786,21.307,21.307,0,0,1-4.436,1.055,3.367,3.367,0,0,0,.544,2.272,2.068,2.068,0,0,0,1.878,1.218,7.9,7.9,0,0,0,3.511-1.57,13.36,13.36,0,0,0,2.368-1.785q.627-1.109,1.2-1.11A1.11,1.11,0,0,1,641.137,157.816ZM636.32,154.7a5.431,5.431,0,0,0-2.45.569,6.968,6.968,0,0,0-1.932,1.326,20.956,20.956,0,0,0,2.476-.649A6.673,6.673,0,0,0,636.32,154.7Z" transform="translate(-442.947 -134.676)" fill="#1d1d1b"/>
  <path id="Caminho_5439" data-name="Caminho 5439" d="M618.777,157.861c.127-.478.253-.956,1.233-.409s.854,1.025.727,1.5c-.006.025-2.372,8.806,3.7,8.961,7.608.193,9.89-12.076,9.9-12.111.093-.483.186-.965,1.171-.438s.892,1.01.8,1.492c-.006.037-2.378,12.811-10.717,12.6-9.878-.251-6.815-11.565-6.806-11.6" transform="translate(-461.46 -137.028)" fill="#1d1d1b"/>
</svg>
