<svg xmlns="http://www.w3.org/2000/svg" width="22.612" height="16.225" viewBox="0 0 22.612 16.225">
  <path id="Subtração_20" data-name="Subtração 20" d="M10.805,15.225c-.068,0-6.778-.005-8.443-.454A2.716,2.716,0,0,1,.452,12.848,28.619,28.619,0,0,1,0,7.613,28.62,28.62,0,0,1,.452,2.376,2.716,2.716,0,0,1,2.362.454C4.027,0,10.737,0,10.805,0S17.584,0,19.249.454A2.715,2.715,0,0,1,21.16,2.376a28.62,28.62,0,0,1,.452,5.236,28.619,28.619,0,0,1-.452,5.236,2.716,2.716,0,0,1-1.911,1.922C17.584,15.22,10.873,15.225,10.805,15.225ZM8.595,4.4v6.427l5.65-3.214L8.595,4.4Z" transform="translate(0.5 0.5)" fill="#fff" stroke="rgba(0,0,0,0)" stroke-miterlimit="10" stroke-width="1"/>
</svg>
